<?xml version="1.0" encoding="UTF-8"?>
<svg width="22px" height="23px" viewBox="0 0 22 23" version="1.1" xmlns="http://www.w3.org/2000/svg" xmlns:xlink="http://www.w3.org/1999/xlink">
    <!-- Generator: Sketch 47.1 (45422) - http://www.bohemiancoding.com/sketch -->
    <title>Artboard</title>
    <desc>Created with Sketch.</desc>
    <defs></defs>
    <g id="Page-1" stroke="none" stroke-width="1" fill="none" fill-rule="evenodd">
        <g id="Artboard" fill-rule="nonzero" fill="#00235f">
            <g id="Group-2" transform="translate(-1.000000, -1.000000)">
                <g id="noun_455682_cc" transform="translate(3.000000, 4.000000)">
                    <g id="Group">
                        <path d="M15.5288462,1.23076923 L14.3846154,1.23076923 L14.3846154,0.615384615 C14.3846154,0.275692308 14.0916923,0 13.7307692,0 C13.3698462,0 13.0769231,0.275692308 13.0769231,0.615384615 L13.0769231,1.23076923 L3.92307692,1.23076923 L3.92307692,0.615384615 C3.92307692,0.275692308 3.63015385,0 3.26923077,0 C2.90830769,0 2.61538462,0.275692308 2.61538462,0.615384615 L2.61538462,1.23076923 L1.47115385,1.23076923 C0.660057692,1.23076923 0,1.852 0,2.61538462 L0,14.6153846 C0,15.3787692 0.660057692,16 1.47115385,16 L15.5288462,16 C16.3399423,16 17,15.3787692 17,14.6153846 L17,2.61538462 C17,1.852 16.3399423,1.23076923 15.5288462,1.23076923 Z M1.47115385,2.46153846 L2.61538462,2.46153846 L2.61538462,3.07692308 C2.61538462,3.41661538 2.90830769,3.69230769 3.26923077,3.69230769 C3.63015385,3.69230769 3.92307692,3.41661538 3.92307692,3.07692308 L3.92307692,2.46153846 L13.0769231,2.46153846 L13.0769231,3.07692308 C13.0769231,3.41661538 13.3698462,3.69230769 13.7307692,3.69230769 C14.0916923,3.69230769 14.3846154,3.41661538 14.3846154,3.07692308 L14.3846154,2.46153846 L15.5288462,2.46153846 C15.61875,2.46153846 15.6923077,2.53046154 15.6923077,2.61538462 L15.6923077,4.30769231 L1.30769231,4.30769231 L1.30769231,2.61538462 C1.30769231,2.53046154 1.38092308,2.46153846 1.47115385,2.46153846 Z M15.5288462,14.7692308 L1.47115385,14.7692308 C1.38092308,14.7692308 1.30769231,14.7 1.30769231,14.6153846 L1.30769231,5.53846154 L15.6923077,5.53846154 L15.6923077,14.6153846 C15.6923077,14.7 15.61875,14.7692308 15.5288462,14.7692308 Z" id="Shape"></path>
                    </g>
                </g>
            </g>
        </g>
    </g>
</svg>