<?xml version="1.0" encoding="UTF-8"?>
<svg width="18px" height="20px" viewBox="0 0 18 20" version="1.1" xmlns="http://www.w3.org/2000/svg" xmlns:xlink="http://www.w3.org/1999/xlink">
    <!-- Generator: Sketch 46 (44423) - http://www.bohemiancoding.com/sketch -->
    <title>ic_clientBook</title>
    <desc>Created with Sketch.</desc>
    <defs></defs>
    <g id="Page-1" stroke="none" stroke-width="1" fill="none" fill-rule="evenodd">
        <g id="nu-UI-web-kit" transform="translate(-4719.000000, -1531.000000)">
            <g id="Group-10" transform="translate(4587.000000, 1235.000000)">
                <g id="Group-9" transform="translate(0.000000, 58.000000)">
                    <g id="ic_clientBook" transform="translate(129.000000, 236.000000)">
                        <polygon id="Bounds" fill-opacity="0.1" fill="#FF0000" opacity="0" points="0 0 24 0 24 24 0 24"></polygon>
                        <g id="Group" transform="translate(4.000000, 3.000000)" stroke="#2E3B42">
                            <path d="M0.296375675,13.3548 C0.132675061,13.3548 0,13.4848 0,13.6452 C0,13.8056 0.132675061,13.9356 0.296375675,13.9356 L1.18529858,13.9356 L1.18529858,15.3872 C1.1855027,16.8302 2.37917002,17.9998 3.85206731,18 L13.3334354,18 L13.3334354,18 C14.8063327,17.9998 15.9997959,16.8304 16,15.3872 L16,2.613 C16,1.1698 14.8063327,0.0002 13.3334354,0 L3.85206731,0 C2.37917002,0.0002 1.1855027,1.1696 1.1855027,2.6128 L1.1855027,4.0644 L0.29657979,4.0644 C0.132879176,4.0644 0.000204115478,4.1944 0.000204115478,4.3548 C0.000204115478,4.5152 0.132879176,4.6452 0.29657979,4.6452 L1.1855027,4.6452 L1.1855027,8.7098 L0.29657979,8.7098 C0.132879176,8.7098 0.000204115478,8.8398 0.000204115478,9.0002 C0.000204115478,9.1606 0.132879176,9.2906 0.29657979,9.2906 L1.1855027,9.2906 L1.1855027,13.3552 L0.296375675,13.3552 L0.296375675,13.3548 Z M1.77784582,13.9354 L2.66676872,13.9354 C2.83046934,13.9354 2.9631444,13.8054 2.9631444,13.645 C2.9631444,13.4846 2.83046934,13.3546 2.66676872,13.3546 L1.77784582,13.3546 L1.77784582,9.2904 L2.66676872,9.2904 C2.83046934,9.2904 2.9631444,9.1604 2.9631444,9 C2.9631444,8.8396 2.83046934,8.7096 2.66676872,8.7096 L1.77784582,8.7096 L1.77784582,4.6452 L2.66676872,4.6452 C2.83046934,4.6452 2.9631444,4.5152 2.9631444,4.3548 C2.9631444,4.1944 2.83046934,4.0644 2.66676872,4.0644 L1.77784582,4.0644 L1.77784582,2.6128 C1.77804993,2.0506 2.00951688,1.5444 2.38529348,1.1758 C2.76147831,0.8076 3.2782987,0.5808 3.85186319,0.5806 L13.3332313,0.5806 C13.9067958,0.5808 14.4236162,0.8076 14.799801,1.1758 C15.1755776,1.5446 15.4070445,2.0508 15.4072487,2.6128 L15.4072487,15.387 C15.4070445,15.949 15.1755776,16.4552 14.799801,16.824 C14.4236162,17.1922 13.9067958,17.419 13.3332313,17.4192 L3.85206731,17.4192 C3.2782987,17.419 2.76168242,17.1922 2.3854976,16.824 C2.009721,16.4552 1.77825405,15.949 1.77804993,15.387 L1.77804993,13.9354 L1.77784582,13.9354 Z" id="Shape" stroke-width="0.3" fill="#2E3B42" fill-rule="nonzero"></path>
                            <g id="users" transform="translate(5.000000, 6.000000)" stroke-width="0.8" stroke-linecap="round" stroke-linejoin="round">
                                <path d="M5.81818182,6.54545455 L5.81818182,5.81818182 C5.81818182,5.01485855 5.16695964,4.36363636 4.36363636,4.36363636 L1.45454545,4.36363636 C0.651222182,4.36363636 8.07434927e-17,5.01485855 0,5.81818182 L0,6.54545455" id="Shape"></path>
                                <circle id="Oval" cx="2.90909091" cy="1.45454545" r="1.45454545"></circle>
                                <path d="M8,6.54545455 L8,5.81818182 C7.99950556,5.15531554 7.55090865,4.57662552 6.90909091,4.41090909" id="Shape"></path>
                                <path d="M5.45454545,0.0472727273 C6.09815085,0.212061741 6.54830664,0.791996781 6.54830664,1.45636364 C6.54830664,2.12073049 6.09815085,2.70066553 5.45454545,2.86545455" id="Shape"></path>
                            </g>
                        </g>
                    </g>
                </g>
            </g>
        </g>
    </g>
</svg>