<?xml version="1.0" encoding="UTF-8"?>
<svg width="40px" height="40px" viewBox="0 0 40 40" version="1.1" xmlns="http://www.w3.org/2000/svg" xmlns:xlink="http://www.w3.org/1999/xlink">
    <!-- Generator: Sketch 46.2 (44496) - http://www.bohemiancoding.com/sketch -->
    <title>ic_confirmedTick</title>
    <desc>Created with Sketch.</desc>
    <defs></defs>
    <g id="Final" stroke="none" stroke-width="1" fill="none" fill-rule="evenodd">
        <g id="8-Onboarding" transform="translate(-695.000000, -185.000000)">
            <g id="Group-3" transform="translate(86.000000, 89.000000)">
                <g id="Group-15" transform="translate(609.000000, 92.000000)">
                    <g id="Group-40">
                        <g id="ic_confirmedTick" transform="translate(0.000000, 4.000000)">
                            <circle id="Oval" stroke="#3FCC97" stroke-width="2" cx="20" cy="20" r="18.75"></circle>
                            <g id="Confirm" transform="translate(10.500000, 13.000000)" fill="#2ECC71">
                                <path d="M18.7365,2.512 L8.3515,14.0735 C8.1085,14.3175 7.786,14.4295 7.467,14.417 C7.1485,14.4295 6.826,14.3175 6.5825,14.0735 L0.8445,8.3205 C0.3815,7.8565 0.3815,7.1045 0.8445,6.641 C1.308,6.177 2.058,6.177 2.5215,6.641 L7.426,11.558 L17.0595,0.832 C17.5225,0.368 18.2735,0.368 18.7365,0.832 C19.2,1.296 19.2,2.048 18.7365,2.512 L18.7365,2.512 Z" id="Shape"></path>
                            </g>
                        </g>
                    </g>
                </g>
            </g>
        </g>
    </g>
</svg>