<?xml version="1.0" encoding="UTF-8"?>
<svg width="13px" height="16px" viewBox="0 0 13 16" version="1.1" xmlns="http://www.w3.org/2000/svg" xmlns:xlink="http://www.w3.org/1999/xlink">
    <!-- Generator: Sketch 46 (44423) - http://www.bohemiancoding.com/sketch -->
    <title>ic_delete</title>
    <desc>Created with Sketch.</desc>
    <defs></defs>
    <g id="Page-1" stroke="none" stroke-width="1" fill="none" fill-rule="evenodd">
        <g id="nu-UI-web-kit" transform="translate(-4722.000000, -1418.000000)">
            <g id="Group-10" transform="translate(4587.000000, 1235.000000)">
                <g id="Group-9" transform="translate(0.000000, 58.000000)">
                    <g id="ic_delete" transform="translate(129.000000, 121.000000)">
                        <polygon id="Bounds" fill-opacity="0.1" fill="#FF0000" opacity="0" points="0 0 24 0 24 24 0 24"></polygon>
                        <path d="M17.5,8 L7.5,8 C7.224,8 7,7.7765 7,7.5 C7,7.224 7.224,7 7.5,7 L17.5,7 C17.776,7 18,7.224 18,7.5 C18,7.7765 17.776,8 17.5,8 L17.5,8 Z M17,18 C17,18.552 16.552,19 16,19 L9,19 C8.448,19 8,18.552 8,18 L8,9 L17,9 L17,18 L17,18 Z M11,5.5 C11,5.2235 11.224,5 11.5,5 L13.5,5 C13.776,5 14,5.2235 14,5.5 L14,6 L11,6 L11,5.5 L11,5.5 Z M18,6 L15,6 L15,5 C15,4.448 14.552,4 14,4 L11,4 C10.448,4 10,4.448 10,5 L10,6 L7,6 C6.448,6 6,6.448 6,7 L6,8 C6,8.552 6.448,9 7,9 L7,18 C7,19.1045 7.8955,20 9,20 L16,20 C17.1045,20 18,19.1045 18,18 L18,9 C18.552,9 19,8.552 19,8 L19,7 C19,6.448 18.552,6 18,6 L18,6 Z M12.5,18 C12.776,18 13,17.7765 13,17.5 L13,11.5 C13,11.224 12.776,11 12.5,11 C12.224,11 12,11.224 12,11.5 L12,17.5 C12,17.7765 12.224,18 12.5,18 L12.5,18 Z M10,18 C10.276,18 10.5,17.7765 10.5,17.5 L10.5,11.5 C10.5,11.224 10.276,11 10,11 C9.724,11 9.5,11.224 9.5,11.5 L9.5,17.5 C9.5,17.7765 9.724,18 10,18 L10,18 Z M15,18 C15.276,18 15.5,17.7765 15.5,17.5 L15.5,11.5 C15.5,11.224 15.276,11 15,11 C14.724,11 14.5,11.224 14.5,11.5 L14.5,17.5 C14.5,17.7765 14.724,18 15,18 L15,18 Z" id="Fill-199" fill="#2E3B42"></path>
                    </g>
                </g>
            </g>
        </g>
    </g>
</svg>