<?xml version="1.0" encoding="UTF-8"?>
<svg width="20px" height="20px" viewBox="0 0 20 20" version="1.1" xmlns="http://www.w3.org/2000/svg" xmlns:xlink="http://www.w3.org/1999/xlink">
    <!-- Generator: Sketch 47.1 (45422) - http://www.bohemiancoding.com/sketch -->
    <title>ic_done</title>
    <desc>Created with Sketch.</desc>
    <defs></defs>
    <g id="Page-1" stroke="none" stroke-width="1" fill="none" fill-rule="evenodd">
        <g id="nu-UI-web-kit" transform="translate(-2325.000000, -4054.000000)">
            <g id="Notifications" transform="translate(2311.000000, 3879.000000)">
                <g id="Group-20" transform="translate(0.000000, 165.000000)">
                    <g id="ic_done" transform="translate(14.000000, 10.000000)">
                        <circle id="Oval" stroke="#3FCC97" cx="10" cy="10" r="9.375"></circle>
                        <g id="Confirm" transform="translate(5.250000, 6.500000)" fill="#2ECC71">
                            <path d="M9.36825,1.256 L4.17575,7.03675 C4.05425,7.15875 3.893,7.21475 3.7335,7.2085 C3.57425,7.21475 3.413,7.15875 3.29125,7.03675 L0.42225,4.16025 C0.19075,3.92825 0.19075,3.55225 0.42225,3.3205 C0.654,3.0885 1.029,3.0885 1.26075,3.3205 L3.713,5.779 L8.52975,0.416 C8.76125,0.184 9.13675,0.184 9.36825,0.416 C9.6,0.648 9.6,1.024 9.36825,1.256 L9.36825,1.256 Z" id="Shape"></path>
                        </g>
                    </g>
                </g>
            </g>
        </g>
    </g>
</svg>