<?xml version="1.0" encoding="UTF-8"?>
<svg width="16px" height="4px" viewBox="0 0 16 4" version="1.1" xmlns="http://www.w3.org/2000/svg" xmlns:xlink="http://www.w3.org/1999/xlink">
    <!-- Generator: Sketch 46 (44423) - http://www.bohemiancoding.com/sketch -->
    <title>ic_more</title>
    <desc>Created with Sketch.</desc>
    <defs></defs>
    <g id="Page-1" stroke="none" stroke-width="1" fill="none" fill-rule="evenodd">
        <g id="nu-UI-web-kit" transform="translate(-4720.000000, -1359.000000)" fill="#2E3B42">
            <g id="Group-10" transform="translate(4587.000000, 1235.000000)">
                <g id="Group-9" transform="translate(0.000000, 58.000000)">
                    <g id="ic_more" transform="translate(126.000000, 53.000000)">
                        <g id="Material/Icons-black/more-vert" transform="translate(15.500000, 15.000000) rotate(90.000000) translate(-15.500000, -15.000000) translate(11.000000, 6.000000)">
                            <path d="M4.359375,4.78125 C5.184375,4.78125 5.859375,4.10625 5.859375,3.28125 C5.859375,2.45625 5.184375,1.78125 4.359375,1.78125 C3.534375,1.78125 2.859375,2.45625 2.859375,3.28125 C2.859375,4.10625 3.534375,4.78125 4.359375,4.78125 L4.359375,4.78125 Z M4.359375,7.78125 C3.534375,7.78125 2.859375,8.45625 2.859375,9.28125 C2.859375,10.10625 3.534375,10.78125 4.359375,10.78125 C5.184375,10.78125 5.859375,10.10625 5.859375,9.28125 C5.859375,8.45625 5.184375,7.78125 4.359375,7.78125 L4.359375,7.78125 Z M4.359375,13.78125 C3.534375,13.78125 2.859375,14.45625 2.859375,15.28125 C2.859375,16.10625 3.534375,16.78125 4.359375,16.78125 C5.184375,16.78125 5.859375,16.10625 5.859375,15.28125 C5.859375,14.45625 5.184375,13.78125 4.359375,13.78125 L4.359375,13.78125 Z" id="Shape"></path>
                        </g>
                    </g>
                </g>
            </g>
        </g>
    </g>
</svg>