<?xml version="1.0" encoding="UTF-8"?>
<svg width="18px" height="18px" viewBox="0 0 18 18" version="1.1" xmlns="http://www.w3.org/2000/svg" xmlns:xlink="http://www.w3.org/1999/xlink">
    <!-- Generator: Sketch 47.1 (45422) - http://www.bohemiancoding.com/sketch -->
    <title>ic_receivable</title>
    <desc>Created with Sketch.</desc>
    <defs></defs>
    <g id="Symbols" stroke="none" stroke-width="1" fill="none" fill-rule="evenodd">
        <g id="LeftNav_receivables" transform="translate(-47.000000, -185.000000)">
            <g id="payment">
                <g transform="translate(0.000000, 170.000000)">
                    <g id="ic_receivable" transform="translate(43.000000, 13.000000)">
                        <g>
                            <polygon id="Bounds" fill-opacity="0.1" fill="#FF0000" opacity="0" points="0 0 24 0 24 24 0 24"></polygon>
                            <path d="M14.4152522,8.99577778 C14.4152522,8.75044444 14.2213472,8.55133333 13.9824286,8.55133333 L8.733576,8.55133333 C8.49465733,8.55133333 8.30075233,8.75044444 8.30075233,8.99577778 C8.30075233,9.24111111 8.49465733,9.44022222 8.733576,9.44022222 L10.8600387,9.44022222 C11.4833047,9.44022222 12.0085362,9.87355556 12.1688974,10.462 L8.733576,10.462 C8.49465733,10.462 8.30075233,10.6611111 8.30075233,10.9064444 C8.30075233,11.1517778 8.49465733,11.3508889 8.733576,11.3508889 L12.1241002,11.3508889 C11.9245685,11.8682222 11.4339628,12.2355556 10.8600387,12.2355556 L8.733576,12.2355556 C8.55655112,12.2355556 8.39727201,12.3462222 8.33169922,12.5151111 C8.26612644,12.6842222 8.30724469,12.8771111 8.4355769,13.002 L11.9568138,16.4357778 C12.0405652,16.5173333 12.1474726,16.558 12.2548129,16.558 C12.3690784,16.558 12.4837766,16.5115556 12.5683937,16.4197778 C12.7332995,16.2415556 12.7261579,15.9606667 12.552812,15.7913333 L9.81779927,13.1246667 L10.8598222,13.1246667 C11.9152627,13.1246667 12.7995215,12.3655556 13.0271867,11.3513333 L13.9824286,11.3513333 C14.2213472,11.3513333 14.4152522,11.1522222 14.4152522,10.9068889 C14.4152522,10.6615556 14.2213472,10.4624444 13.9824286,10.4624444 L13.0531562,10.4624444 C12.9914788,10.0817778 12.8389084,9.73355556 12.6175191,9.44066667 L13.9824286,9.44066667 C14.2213472,9.44022222 14.4152522,9.24133333 14.4152522,8.99577778 Z M18.7160046,10.8888889 C18.4770859,10.8888889 18.2831809,11.088 18.2831809,11.3333333 L18.2831809,17.3333333 C18.2831809,18.3135556 17.5064788,19.1111111 16.5518862,19.1111111 L6.59694198,19.1111111 C5.64234939,19.1111111 4.86564733,18.3135556 4.86564733,17.3333333 L4.86564733,6.66666667 C4.86564733,5.68644444 5.64234939,4.88888889 6.59694198,4.88888889 L14.6041798,4.88888889 C14.8430984,4.88888889 15.0370034,4.68977778 15.0370034,4.44444444 C15.0370034,4.19911111 14.8430984,4 14.6041798,4 L6.59694198,4 C5.16494489,4 4,5.19622222 4,6.66666667 L4,17.3333333 C4,18.8037778 5.16494489,20 6.59694198,20 L16.5518862,20 C17.9838833,20 19.1488282,18.8037778 19.1488282,17.3333333 L19.1488282,11.3333333 C19.1488282,11.088 18.9549232,10.8888889 18.7160046,10.8888889 Z M21.8732368,6.09155556 C21.7044355,5.918 21.4302418,5.918 21.2614405,6.09155556 L19.1488282,8.26044444 L19.1488282,2.44444444 C19.1488282,2.19911111 18.9549232,2 18.7160046,2 C18.4770859,2 18.2831809,2.19911111 18.2831809,2.44444444 L18.2831809,8.26044444 L16.1710014,6.09155556 C16.0019838,5.918 15.7280064,5.918 15.5589888,6.09155556 C15.3899711,6.26511111 15.3899711,6.54644444 15.5589888,6.72 L18.4099982,9.64755556 C18.4946153,9.73444444 18.6052017,9.77777778 18.7160046,9.77777778 C18.8268074,9.77777778 18.9373939,9.73444444 19.0220109,9.64755556 L21.8732368,6.72 C22.0422544,6.54644444 22.0422544,6.26511111 21.8732368,6.09155556 Z" id="Shape" fill="#2E3B42" fill-rule="nonzero"></path>
                        </g>
                    </g>
                </g>
            </g>
        </g>
    </g>
</svg>