<?xml version="1.0" encoding="UTF-8"?>
<svg width="18px" height="18px" viewBox="0 0 18 18" version="1.1" xmlns="http://www.w3.org/2000/svg" xmlns:xlink="http://www.w3.org/1999/xlink">
    <!-- Generator: Sketch 47.1 (45422) - http://www.bohemiancoding.com/sketch -->
    <title>ic_settings</title>
    <desc>Created with Sketch.</desc>
    <defs></defs>
    <g id="Symbols" stroke="none" stroke-width="1" fill="none" fill-rule="evenodd">
        <g id="LeftNav_receivables" transform="translate(-46.000000, -444.000000)" fill="#2E3B42" stroke="#2E3B42">
            <g id="settings">
                <g transform="translate(0.000000, 430.000000)">
                    <g id="ic_settings" transform="translate(43.000000, 11.000000)">
                        <g id="Shape">
                            <path d="M10.9090909,4 C10.4086,4 9.99999996,4.40859818 9.99999996,4.90909091 L9.99999996,5.96590909 C9.70789087,6.06251273 9.42541815,6.18184 9.15339996,6.31818182 L8.40339996,5.56818182 C8.04950905,5.2143 7.46752724,5.2143 7.11363633,5.56818182 L5.56818178,7.11363636 C5.21430905,7.46752364 5.21430905,8.04384 5.56818178,8.39772727 L6.32387269,9.15340909 C6.18683633,9.42678545 6.06278178,9.70633091 5.96590905,10 L4.90909087,10 C4.4086,10 4,10.4085982 4,10.9090855 L4,13.0909091 C4,13.5914 4.4086,14 4.90909087,14 L5.97158178,14 C6.06785451,14.2908545 6.18249087,14.5756727 6.31818178,14.8465818 L5.56818178,15.5965818 C5.21430905,15.9504727 5.21430905,16.5268 5.56818178,16.8806727 L7.11363633,18.4261273 C7.46752724,18.7800182 8.04950905,18.7800182 8.40339996,18.4261273 L9.15339996,17.6761273 C9.42543633,17.8124727 9.70789087,17.9318 9.99999996,18.0284 L9.99999996,19.0909091 C9.99999996,19.5914 10.4086,20 10.9090909,20 L13.0909091,20 C13.5914,20 14,19.5914 14,19.0909091 L14,18.0284 C14.2921091,17.9318 14.5746,17.8124727 14.8466,17.6761273 L15.5966,18.4261273 C15.9504909,18.7800182 16.5324727,18.7800182 16.8863636,18.4261273 L18.4318181,16.8806727 C18.7856909,16.5268 18.7856909,15.9504727 18.4318181,15.5965818 L17.6818181,14.8465818 C17.8175091,14.5756727 17.9321454,14.2908545 18.0284181,14 L19.0909091,14 C19.5914,14 20,13.5914 20,13.0909091 L20,10.9090855 C20,10.4085982 19.5914,10 19.0909091,10 L18.0340909,10 C17.9372181,9.70633091 17.8131272,9.42678545 17.6761272,9.15340909 L18.4318181,8.39772727 C18.7856909,8.04384 18.7856909,7.46752364 18.4318181,7.11363636 L16.8863636,5.56818182 C16.5324727,5.2143 15.9504909,5.2143 15.5966,5.56818182 L14.8466,6.31818182 C14.5745454,6.18184 14.2921091,6.06251273 14,5.96590909 L14,4.90909091 C14,4.40859818 13.5914,4 13.0909091,4 L10.9090909,4 Z M10.9090909,4.36363636 L13.0909091,4.36363636 C13.3962363,4.36363636 13.6363636,4.60376182 13.6363636,4.90909091 L13.6363636,6.09090909 C13.6381818,6.16748182 13.6935454,6.23984 13.7670363,6.26136364 C14.1310181,6.37306364 14.4766545,6.5182 14.8068181,6.69318182 C14.8758545,6.72984545 14.9683454,6.71524 15.0227272,6.65909091 L15.8579454,5.82386364 C16.0738909,5.60794182 16.4090727,5.60794182 16.625,5.82386364 L18.1704545,7.36931818 C18.3863636,7.58523455 18.3863636,7.92612909 18.1704545,8.14204545 L17.3352181,8.97727273 C17.2808727,9.03298909 17.2687454,9.12530182 17.3068181,9.19318182 C17.4818,9.52334545 17.6212727,9.86898909 17.7329636,10.2329545 C17.755,10.3082636 17.8306181,10.3643491 17.9090909,10.3636364 L19.0909091,10.3636364 C19.3962363,10.3636364 19.6363636,10.6037618 19.6363636,10.9090855 L19.6363636,13.0909091 C19.6363636,13.3962364 19.3962363,13.6363636 19.0909091,13.6363636 L17.9090909,13.6363636 C17.8320181,13.6345455 17.7570363,13.6881273 17.7329636,13.7613636 C17.6212727,14.1253273 17.4818,14.4766545 17.3068181,14.8068182 C17.2713818,14.8734909 17.2833818,14.9621636 17.3352181,15.0170364 L18.1704545,15.8522727 C18.3863636,16.0681818 18.3863636,16.4090727 18.1704545,16.625 L16.625,18.1704545 C16.4090727,18.3863818 16.0738909,18.3863818 15.8579454,18.1704545 L15.0227272,17.3352182 C14.9683454,17.2790727 14.8758545,17.2644727 14.8068181,17.3011273 C14.4766545,17.4761091 14.1309818,17.6212545 13.7670363,17.7329455 C13.6917636,17.7550182 13.6356545,17.8306182 13.6363636,17.9090909 L13.6363636,19.0909091 C13.6363636,19.3962364 13.3962363,19.6363636 13.0909091,19.6363636 L10.9090909,19.6363636 C10.6037636,19.6363636 10.3636363,19.3962364 10.3636363,19.0909091 L10.3636363,17.9090909 C10.3636363,17.8306182 10.3082545,17.7550182 10.2329636,17.7329455 C9.86898178,17.6212545 9.5233636,17.4761091 9.19318178,17.3011273 C9.12414542,17.2644727 9.03165451,17.2790727 8.97727269,17.3352182 L8.14205451,18.1704545 C7.92610905,18.3863818 7.59092724,18.3863818 7.37499996,18.1704545 L5.82954542,16.625 C5.61363633,16.4090727 5.61363633,16.0681818 5.82954542,15.8522727 L6.66478178,15.0170364 C6.71661815,14.9621636 6.72861815,14.8734909 6.69318178,14.8068182 C6.51819996,14.4766545 6.37872724,14.1253273 6.26703633,13.7613636 C6.24298178,13.6881273 6.16798178,13.6349091 6.09090905,13.6363636 L4.90909087,13.6363636 C4.60376364,13.6363636 4.36363636,13.3962364 4.36363636,13.0909091 L4.36363636,10.9090855 C4.36363636,10.6037618 4.60376364,10.3636364 4.90909087,10.3636364 L6.09090905,10.3636364 C6.16938178,10.3643636 6.24499996,10.3082636 6.26703633,10.2329545 C6.37872724,9.86898909 6.51819996,9.52334545 6.69318178,9.19318182 C6.73125451,9.12530182 6.71912724,9.03298909 6.66478178,8.97727273 L5.82954542,8.14204545 C5.61363633,7.92612909 5.61363633,7.58523455 5.82954542,7.36931818 L7.37499996,5.82386364 C7.59092724,5.60794182 7.92610905,5.60794182 8.14205451,5.82386364 L8.97727269,6.65909091 C9.03165451,6.71524 9.12414542,6.72984545 9.19318178,6.69318182 C9.5233636,6.51819818 9.86899996,6.37306364 10.2329636,6.26136364 C10.3064363,6.23984 10.3619272,6.16748182 10.3636363,6.09090909 L10.3636363,4.90909091 C10.3636363,4.60376182 10.6037636,4.36363636 10.9090909,4.36363636 Z M12,8.54545455 C10.0942727,8.54545455 8.54545451,10.0942436 8.54545451,12 C8.54545451,13.9057273 10.0942727,15.4545455 12,15.4545455 C13.9057454,15.4545455 15.4545454,13.9057273 15.4545454,12 C15.4545454,10.0942436 13.9057454,8.54545455 12,8.54545455 Z M12,8.90909091 C13.7092181,8.90909091 15.0909091,10.2907655 15.0909091,12 C15.0909091,13.7092 13.7092181,15.0909091 12,15.0909091 C10.2907818,15.0909091 8.90909087,13.7092 8.90909087,12 C8.90909087,10.2907636 10.2907818,8.90909091 12,8.90909091 Z" stroke-width="0.5" fill-rule="nonzero"></path>
                        </g>
                    </g>
                </g>
            </g>
        </g>
    </g>
</svg>