<?xml version="1.0" encoding="iso-8859-1"?>
<!-- Generator: Adobe Illustrator 19.0.0, SVG Export Plug-In . SVG Version: 6.00 Build 0)  -->
<svg version="1.1" id="Capa_1" xmlns="http://www.w3.org/2000/svg" xmlns:xlink="http://www.w3.org/1999/xlink" x="0px" y="0px"
	 viewBox="0 0 512 512" style="enable-background:new 0 0 512 512;" xml:space="preserve">
<g>
	<path style="fill:#303C42;" d="M474.51,37.49C449.552,12.531,416.776,0,384,0c-32.776,0-65.552,12.531-90.511,37.49
		L186.823,144.156c-6.671,6.671-12.539,14.595-18.37,24.294c-9.682,5.814-17.608,11.684-24.297,18.372L37.49,293.49
		C12.536,318.443,0,351.221,0,384c0,32.779,12.536,65.557,37.49,90.511C62.448,499.469,95.219,512,128,512
		s65.562-12.531,90.51-37.49l106.667-106.667c6.689-6.689,12.559-14.615,18.372-24.297c9.699-5.831,17.624-11.699,24.294-18.37
		L474.51,218.511c24.886-24.886,37.423-57.82,37.49-90.51C512.067,95.134,499.531,62.51,474.51,37.49z M429.26,173.261
		L322.594,279.927c-6.229,6.219-13.698,11.042-22.229,14.333c-24.354,9.448-50.76,3.198-68.292-14.333
		c-4.167-4.167-10.917-4.167-15.083,0l-30.167,30.167c-4.167,4.167-4.167,10.917,0,15.083
		c16.059,16.059,35.786,27.107,57.802,32.719l-71.365,71.365c-24.167,24.167-66.354,24.167-90.521,0
		c-24.958-24.958-24.958-65.563,0-90.521l106.667-106.667c6.229-6.219,13.698-11.042,22.229-14.333
		c24.375-9.396,50.781-3.177,68.292,14.333c4.167,4.167,10.917,4.167,15.083,0l30.167-30.167c4.167-4.167,4.167-10.917,0-15.083
		c-16.059-16.059-35.786-27.107-57.802-32.719L338.74,82.74c24.167-24.167,66.354-24.167,90.521,0
		C454.219,107.698,454.219,148.302,429.26,173.261z"/>
	<path style="fill:#303C42;" d="M74.667,149.333h64c5.896,0,10.667-4.771,10.667-10.667c0-5.896-4.771-10.667-10.667-10.667h-64
		C68.771,128,64,132.771,64,138.667C64,144.563,68.771,149.333,74.667,149.333z"/>
	<path style="fill:#303C42;" d="M160,128c5.896,0,10.667-4.771,10.667-10.667v-64c0-5.896-4.771-10.667-10.667-10.667
		c-5.896,0-10.667,4.771-10.667,10.667v64C149.333,123.229,154.104,128,160,128z"/>
	<path style="fill:#303C42;" d="M373.333,384c-5.896,0-10.667,4.771-10.667,10.667v64c0,5.896,4.771,10.667,10.667,10.667
		c5.896,0,10.667-4.771,10.667-10.667v-64C384,388.771,379.229,384,373.333,384z"/>
	<path style="fill:#303C42;" d="M458.667,362.667h-64c-5.896,0-10.667,4.771-10.667,10.667c0,5.896,4.771,10.667,10.667,10.667h64
		c5.896,0,10.667-4.771,10.667-10.667C469.333,367.438,464.563,362.667,458.667,362.667z"/>
</g>
<g>
	<path style="fill:#CCCCCC;" d="M203.427,459.427c-41.583,41.583-109.271,41.583-150.854,0c-41.594-41.594-41.594-109.26,0-150.854
		L159.24,201.906c5.917-5.917,12.99-11.167,22.24-16.521c19.031-11.01,40.75-15.76,62.917-13.729
		c21.813,1.99,41.583,9.927,57.771,23.094L287,209.906c-22.927-17.885-54.437-23.135-83.042-12.063
		c-11.323,4.354-21.292,10.802-29.635,19.146L67.656,323.656c-33.271,33.271-33.271,87.417,0,120.688
		c32.229,32.229,88.458,32.229,120.688,0l82.514-82.514c2.24,0.115,4.482,0.306,6.715,0.306c8.85,0,17.549-1.167,26.105-2.96
		L203.427,459.427z"/>
	<path style="fill:#CCCCCC;" d="M459.427,203.427L352.76,310.094c-5.906,5.906-12.979,11.156-22.24,16.521
		c-19.031,11.01-40.781,15.74-62.917,13.729c-21.812-1.99-41.583-9.927-57.771-23.094L225,302.094
		c22.906,17.865,54.406,23.125,83.042,12.063c11.323-4.354,21.292-10.802,29.635-19.146l106.667-106.667
		c33.271-33.271,33.271-87.417,0-120.688c-32.229-32.229-88.458-32.229-120.688,0l-82.671,82.671
		c-10.965-0.542-21.865,0.099-32.465,2.298L308.573,52.573c41.583-41.583,109.271-41.583,150.854,0
		C501.021,94.167,501.021,161.833,459.427,203.427z"/>
</g>
<linearGradient id="SVGID_1_" gradientUnits="userSpaceOnUse" x1="-44.2449" y1="638.9335" x2="-24.3397" y2="629.6525" gradientTransform="matrix(21.3333 0 0 -21.3333 996.3306 13791.6699)">
	<stop  offset="0" style="stop-color:#FFFFFF;stop-opacity:0.2"/>
	<stop  offset="1" style="stop-color:#FFFFFF;stop-opacity:0"/>
</linearGradient>
<path style="fill:url(#SVGID_1_);" d="M474.51,37.49C449.552,12.531,416.776,0,384,0s-65.552,12.531-90.51,37.49L186.823,144.156
	c-6.671,6.671-12.539,14.595-18.37,24.294c-9.682,5.814-17.608,11.684-24.297,18.372L37.49,293.49C12.536,318.443,0,351.221,0,384
	s12.536,65.557,37.49,90.51C62.448,499.469,95.219,512,128,512s65.562-12.531,90.51-37.49l106.667-106.667
	c6.689-6.689,12.559-14.615,18.372-24.297c9.699-5.831,17.624-11.699,24.294-18.37L474.51,218.511
	c24.887-24.887,37.423-57.82,37.49-90.51C512.068,95.133,499.53,62.509,474.51,37.49z M429.26,173.261L322.594,279.927
	c-6.229,6.219-13.698,11.042-22.229,14.333c-24.354,9.448-50.76,3.198-68.292-14.333c-4.167-4.167-10.917-4.167-15.083,0
	l-30.167,30.167c-4.167,4.167-4.167,10.917,0,15.083c16.059,16.059,35.786,27.107,57.802,32.719l-71.365,71.365
	c-24.167,24.167-66.354,24.167-90.521,0c-24.958-24.958-24.958-65.563,0-90.521l106.667-106.667
	c6.229-6.219,13.698-11.042,22.229-14.333c24.375-9.396,50.781-3.177,68.292,14.333c4.167,4.167,10.917,4.167,15.083,0
	l30.167-30.167c4.167-4.167,4.167-10.917,0-15.083c-16.059-16.059-35.786-27.107-57.802-32.719L338.74,82.74
	c24.167-24.167,66.354-24.167,90.521,0C454.219,107.698,454.219,148.302,429.26,173.261z M74.667,149.333h64
	c5.896,0,10.667-4.771,10.667-10.667c0-5.896-4.771-10.667-10.667-10.667h-64C68.771,128,64,132.771,64,138.667
	C64,144.563,68.771,149.333,74.667,149.333z M160,128c5.896,0,10.667-4.771,10.667-10.667v-64c0-5.896-4.771-10.667-10.667-10.667
	c-5.896,0-10.667,4.771-10.667,10.667v64C149.333,123.229,154.104,128,160,128z M373.333,384c-5.896,0-10.667,4.771-10.667,10.667
	v64c0,5.896,4.771,10.667,10.667,10.667c5.896,0,10.667-4.771,10.667-10.667v-64C384,388.771,379.229,384,373.333,384z
	 M458.667,362.667h-64c-5.896,0-10.667,4.771-10.667,10.667c0,5.896,4.771,10.667,10.667,10.667h64
	c5.896,0,10.667-4.771,10.667-10.667C469.333,367.438,464.563,362.667,458.667,362.667z"/>
<g>
</g>
<g>
</g>
<g>
</g>
<g>
</g>
<g>
</g>
<g>
</g>
<g>
</g>
<g>
</g>
<g>
</g>
<g>
</g>
<g>
</g>
<g>
</g>
<g>
</g>
<g>
</g>
<g>
</g>
</svg>
