<?xml version="1.0" encoding="UTF-8"?>
<svg width="20px" height="20px" viewBox="0 0 20 20" version="1.1" xmlns="http://www.w3.org/2000/svg" xmlns:xlink="http://www.w3.org/1999/xlink">
    <!-- Generator: Sketch 47.1 (45422) - http://www.bohemiancoding.com/sketch -->
    <title>ic_warning</title>
    <desc>Created with Sketch.</desc>
    <defs></defs>
    <g id="Page-1" stroke="none" stroke-width="1" fill="none" fill-rule="evenodd">
        <g id="nu-UI-web-kit" transform="translate(-2325.000000, -4174.000000)">
            <g id="Notifications" transform="translate(2311.000000, 3879.000000)">
                <g id="Group-20" transform="translate(0.000000, 285.000000)">
                    <g id="ic_warning" transform="translate(14.000000, 10.000000)">
                        <circle id="Oval" stroke="#D6A910" cx="10" cy="10" r="9.5"></circle>
                        <path d="M10.5655172,5.50758621 L10.5655172,9.05793103 C10.5655172,9.43448464 10.5468967,9.80379129 10.5096552,10.1658621 C10.4724136,10.5279328 10.4227589,10.9117221 10.3606897,11.3172414 L9.32413793,11.3172414 C9.26206866,10.9117221 9.21241398,10.5279328 9.17517241,10.1658621 C9.13793085,9.80379129 9.11931034,9.43448464 9.11931034,9.05793103 L9.11931034,5.50758621 L10.5655172,5.50758621 Z M8.88344828,13.6386207 C8.88344828,13.5103442 8.90724114,13.3882764 8.95482759,13.2724138 C9.00241403,13.1565511 9.06862027,13.0572418 9.15344828,12.9744828 C9.23827629,12.8917237 9.33862011,12.8255175 9.45448276,12.7758621 C9.57034541,12.7262066 9.6944821,12.7013793 9.82689655,12.7013793 C9.95517306,12.7013793 10.0772408,12.7262066 10.1931034,12.7758621 C10.3089661,12.8255175 10.4082754,12.8917237 10.4910345,12.9744828 C10.5737935,13.0572418 10.6399998,13.1565511 10.6896552,13.2724138 C10.7393106,13.3882764 10.7641379,13.5103442 10.7641379,13.6386207 C10.7641379,13.7710351 10.7393106,13.8941374 10.6896552,14.007931 C10.6399998,14.1217247 10.5737935,14.2199996 10.4910345,14.3027586 C10.4082754,14.3855177 10.3089661,14.4506894 10.1931034,14.4982759 C10.0772408,14.5458623 9.95517306,14.5696552 9.82689655,14.5696552 C9.6944821,14.5696552 9.57034541,14.5458623 9.45448276,14.4982759 C9.33862011,14.4506894 9.23827629,14.3855177 9.15344828,14.3027586 C9.06862027,14.2199996 9.00241403,14.1217247 8.95482759,14.007931 C8.90724114,13.8941374 8.88344828,13.7710351 8.88344828,13.6386207 L8.88344828,13.6386207 Z" id="!" fill="#D6A910"></path>
                    </g>
                </g>
            </g>
        </g>
    </g>
</svg>