<?xml version="1.0" encoding="utf-8"?>
<!-- Svg Vector Icons : http://www.onlinewebfonts.com/icon -->
<!DOCTYPE svg PUBLIC "-//W3C//DTD SVG 1.1//EN" "http://www.w3.org/Graphics/SVG/1.1/DTD/svg11.dtd">
<svg version="1.1" xmlns="http://www.w3.org/2000/svg" xmlns:xlink="http://www.w3.org/1999/xlink" x="0px" y="0px" viewBox="0 0 1000 1000" enable-background="new 0 0 1000 1000" xml:space="preserve">
<metadata> Svg Vector Icons : http://www.onlinewebfonts.com/icon </metadata>
<g><path d="M115.8,922.8C57.5,922.8,10,869.5,10,804V202.5c0-69.1,47.5-125.3,105.8-125.3h497.8c58.4,0,105.8,56.2,105.8,125.3v64.4c0,17.2-14,31.2-31.2,31.2c-17.2,0-31.2-14-31.2-31.2v-64.4c0-29.4-19.5-53.2-43.5-53.2H115.8c-24,0-43.5,23.9-43.5,53.2v595c0,29.4,19.5,53.2,43.5,53.2h497.8c24,0,43.5-23.9,43.5-53.2v-64.4c0-17.2,14-31.2,31.2-31.2c17.2,0,31.2,14,31.2,31.2v64.4c0,69.1-47.5,125.3-105.8,125.3L115.8,922.8L115.8,922.8z M787.3,724.9c-8.4,0-16.3-3.5-22.2-9.8c-11.9-12.8-11.9-33.5,0-46.2l120-128.4c0.1-0.1,0.2-0.2,0.1-0.4c-0.1-0.2-0.2-0.2-0.4-0.2h-522c-17.2,0-31.2-14.8-31.2-32.9c0-18.1,14-32.9,31.2-32.9h521.9c0.1,0,0.3,0,0.4-0.2s0-0.3-0.1-0.4L765.1,345c-11.9-12.8-11.9-33.5,0-46.2c5.9-6.3,13.8-9.8,22.2-9.8c8.4,0,16.3,3.5,22.2,9.8l171.7,183.7c6,6.5,9.1,15.1,8.7,24.5c0.4,9.3-2.7,18-8.7,24.5L809.5,715.1C803.6,721.4,795.7,724.9,787.3,724.9z"/></g>
</svg>